<?xml version="1.0" encoding="utf-8"?>
<!-- Generator: Adobe Illustrator 23.0.0, SVG Export Plug-In . SVG Version: 6.00 Build 0)  -->
<svg version="1.1" id="Layer_1_1_" xmlns="http://www.w3.org/2000/svg" xmlns:xlink="http://www.w3.org/1999/xlink" x="0px" y="0px"
	 viewBox="0 0 64 64" style="enable-background:new 0 0 64 64;" xml:space="preserve">
<style type="text/css">
	.st0{fill:#FFFFFF;}
</style>
<g>
	
		<rect x="20" y="27.36" transform="matrix(0.6727 -0.7399 0.7399 0.6727 -11.0044 33.033)" class="st0" width="23.67" height="3.19"/>
	<path class="st0" d="M25.47,28.95c2.63,0,4.78-2.14,4.78-4.78s-2.14-4.78-4.78-4.78s-4.78,2.14-4.78,4.78S22.83,28.95,25.47,28.95z
		 M25.47,22.58c0.88,0,1.59,0.71,1.59,1.59s-0.71,1.59-1.59,1.59c-0.88,0-1.59-0.71-1.59-1.59S24.59,22.58,25.47,22.58z"/>
	<path class="st0" d="M33.43,33.73c0,2.63,2.14,4.78,4.78,4.78s4.78-2.14,4.78-4.78s-2.14-4.78-4.78-4.78S33.43,31.09,33.43,33.73z
		 M39.8,33.73c0,0.88-0.71,1.59-1.59,1.59s-1.59-0.71-1.59-1.59c0-0.88,0.71-1.59,1.59-1.59S39.8,32.85,39.8,33.73z"/>
	<path class="st0" d="M30.68,62.69c0.3,0.32,0.72,0.5,1.16,0.5s0.85-0.18,1.16-0.5l25.25-26.61c7.23-7.62,7.23-20.02,0-27.64
		c-3.53-3.72-8.23-5.77-13.23-5.77c-4.98,0-9.65,2.03-13.18,5.71c-3.52-3.68-8.2-5.71-13.18-5.71c-5,0-9.7,2.05-13.23,5.77
		c-7.23,7.62-7.23,20.02,0,27.64L30.68,62.69z M7.74,10.64c2.92-3.08,6.8-4.78,10.92-4.78c4.12,0,8,1.7,10.92,4.78l1.1,1.16
		c0.6,0.63,1.71,0.63,2.31,0l1.1-1.16c2.92-3.08,6.8-4.78,10.92-4.78c4.12,0,8,1.7,10.92,4.78c6.09,6.41,6.09,16.84,0,23.26
		l-24.1,25.39L7.74,33.89C1.65,27.48,1.65,17.05,7.74,10.64z"/>
	<rect x="23.87" y="40.89" class="st0" width="3.18" height="3.18"/>
	<rect x="30.24" y="40.89" class="st0" width="3.18" height="3.18"/>
	<rect x="36.61" y="40.89" class="st0" width="3.18" height="3.18"/>
</g>
</svg>
