<?xml version="1.0" encoding="utf-8"?>
<!-- Generator: Adobe Illustrator 23.0.0, SVG Export Plug-In . SVG Version: 6.00 Build 0)  -->
<svg version="1.1" id="Capa_1" xmlns="http://www.w3.org/2000/svg" xmlns:xlink="http://www.w3.org/1999/xlink" x="0px" y="0px"
	 viewBox="0 0 512 512" style="enable-background:new 0 0 512 512;" xml:space="preserve">
<style type="text/css">
	.st0{fill:#FFFFFF;}
</style>
<g>
	<g>
		<path class="st0" d="M493.47,0.48c-0.14,0.03-0.28,0.06-0.42,0.1L26.36,127.86c-11.73,3.2-14.96,18.33-5.59,26.05l145.25,119.66
			l-26.74,80.23c-3.9,11.7,7.26,22.88,18.97,18.97l80.23-26.74l119.66,145.25c7.75,9.4,22.86,6.11,26.05-5.59L511.47,19
			c0.04-0.15,0.07-0.3,0.11-0.44C514.2,7.56,504.28-2.13,493.47,0.48z M62.21,149.18L431.98,48.33L183.59,249.18L62.21,149.18z
			 M234.6,315.7l-57.38,19.13l19.13-57.38l199.86-161.61L234.6,315.7z M362.87,449.84l-100-121.38L463.72,80.06L362.87,449.84z"/>
	</g>
</g>
<g>
	<g>
		<path class="st0" d="M46.81,465.31c-5.86-5.86-15.36-5.85-21.21,0.01l-21.2,21.22c-5.86,5.86-5.85,15.36,0.01,21.21
			c5.59,5.59,15.63,5.58,21.21-0.01l21.2-21.22C52.67,480.67,52.67,471.17,46.81,465.31z"/>
	</g>
</g>
<g>
	<g>
		<path class="st0" d="M110.41,401.64c-5.86-5.86-15.36-5.85-21.21,0.01L68,422.88c-5.32,5.33-5.32,15.89,0.01,21.21
			c5.06,5.05,16.16,5.05,21.21-0.01l21.2-21.22C116.28,417,116.27,407.5,110.41,401.64z"/>
	</g>
</g>
</svg>
