<?xml version="1.0" encoding="utf-8"?>
<!-- Generator: Adobe Illustrator 23.0.0, SVG Export Plug-In . SVG Version: 6.00 Build 0)  -->
<svg version="1.1" id="Capa_1" xmlns="http://www.w3.org/2000/svg" xmlns:xlink="http://www.w3.org/1999/xlink" x="0px" y="0px"
	 viewBox="0 0 430.23 430.23" style="enable-background:new 0 0 430.23 430.23;" xml:space="preserve">
<style type="text/css">
	.st0{fill:#FFFFFF;}
</style>
<g>
	<g>
		<g>
			<path class="st0" d="M217.88,159.67c-24.24,0-43.89,19.65-43.89,43.89c0,24.24,19.65,43.89,43.89,43.89
				c24.24,0,43.89-19.65,43.89-43.89S242.11,159.67,217.88,159.67z M217.88,226.54c-12.7,0-22.99-10.29-22.99-22.99
				s10.29-22.99,22.99-22.99l0,0c12.7,0,22.99,10.29,22.99,22.99S230.57,226.54,217.88,226.54z"/>
			<path class="st0" d="M392.9,59.36L107.64,26.97c-11.07-1.57-22.29,1.66-30.82,8.88c-8.54,6.62-14.01,16.43-15.15,27.17
				l-5.22,42.84h-16.2c-22.99,0-40.23,20.38-40.23,43.36V362.9c-0.58,21.92,16.72,40.16,38.64,40.74c0.53,0.01,1.06,0.02,1.58,0.01
				h286.82c22.99,0,43.89-17.76,43.89-40.75v-8.36c7.13-1.38,13.89-4.22,19.85-8.36c8.46-7.13,13.89-17.22,15.15-28.21l24.03-212.11
				C432.44,82.81,415.9,62.09,392.9,59.36z M350.05,362.9c0,11.49-11.49,19.85-22.99,19.85H40.24c-10.38,0.3-19.05-7.86-19.35-18.25
				c-0.02-0.54-0.01-1.07,0.02-1.61v-38.66l80.98-59.56c9.73-7.47,23.43-6.8,32.39,1.57l56.95,50.15
				c8.65,7.26,19.53,11.32,30.82,11.49c8.83,0.11,17.51-2.24,25.08-6.79l102.92-59.56L350.05,362.9L350.05,362.9z M350.05,236.99
				l-113.89,66.35c-9.78,5.79-22.16,4.74-30.82-2.61l-57.47-50.68c-16.47-14.15-40.54-15.02-57.99-2.09l-68.96,50.16v-148.9
				c0-11.49,7.84-22.46,19.33-22.46h286.82c12.28,0.51,22.2,10.2,22.99,22.46L350.05,236.99L350.05,236.99z M409.11,103.03
				c-0.01,0.07-0.01,0.14-0.02,0.21l-24.55,212.11c0.04,5.5-2.47,10.71-6.79,14.11c-2.09,2.09-6.79,3.14-6.79,4.18V149.22
				c-0.83-23.8-20.08-42.82-43.89-43.36H77.34l4.7-40.75c1.02-5.28,3.78-10.06,7.84-13.58c4.58-3.17,10.12-4.65,15.67-4.18
				l284.73,32.91C401.77,81.35,410.2,91.54,409.11,103.03z"/>
		</g>
	</g>
</g>
</svg>
