<svg id="Capa_1" data-name="Capa 1" xmlns="http://www.w3.org/2000/svg" viewBox="0 0 20 20"><defs><style>.cls-1,.cls-2{fill:#fff;}.cls-2{fill-rule:evenodd;}</style></defs><title>icon</title><path class="cls-1" d="M10,0A10,10,0,1,1,2.93,2.93,10,10,0,0,1,10,0Zm6.52,3.48A9.22,9.22,0,1,0,19.22,10a9.18,9.18,0,0,0-2.7-6.52Z"/><path class="cls-2" d="M5.49,10.09v4.42h2.1v-6H5.49Zm9,.25c-.14-1.14-.66-1.85-2.2-1.85a1.87,1.87,0,0,0-1.76.82h0V8.49H8.79v6h1.76v-3c0-.79.15-1.55,1.12-1.55s1,.9,1,1.6v2.93h1.8v-3.3a6,6,0,0,0,0-.87ZM6.54,5.49a1,1,0,1,0,1,1,1,1,0,0,0-1-1Z"/></svg>