<svg id="Capa_1" data-name="Capa 1" xmlns="http://www.w3.org/2000/svg" viewBox="0 0 20 20"><defs><style>.cls-1,.cls-2{fill:#fff;}.cls-2{fill-rule:evenodd;}</style></defs><title>icon</title><path class="cls-1" d="M10,0A10,10,0,1,1,2.93,2.93,10,10,0,0,1,10,0Zm6.52,3.48A9.22,9.22,0,1,0,19.22,10a9.22,9.22,0,0,0-2.7-6.52Z"/><path class="cls-2" d="M7.44,10A2.56,2.56,0,1,1,10,12.56,2.56,2.56,0,0,1,7.44,10Zm5.21-5H7.36A2.38,2.38,0,0,0,5,7.36v5.29A2.38,2.38,0,0,0,7.36,15h5.29A2.38,2.38,0,0,0,15,12.65V7.36A2.38,2.38,0,0,0,12.65,5Zm-5.29.59h5.29a1.78,1.78,0,0,1,1.77,1.78v5.29a1.77,1.77,0,0,1-1.77,1.77H7.36a1.78,1.78,0,0,1-1.78-1.77V7.36A1.78,1.78,0,0,1,7.36,5.58Zm5.81.75a.52.52,0,1,0,.52.52.52.52,0,0,0-.52-.52ZM13.23,10A3.23,3.23,0,1,0,10,13.23,3.23,3.23,0,0,0,13.23,10Z"/></svg>