<svg id="Capa_1" data-name="Capa 1" xmlns="http://www.w3.org/2000/svg" viewBox="0 0 20 20"><defs><style>.cls-1,.cls-2{fill:#fff;}.cls-2{fill-rule:evenodd;}</style></defs><title>icon</title><path class="cls-1" d="M10,0A10,10,0,1,1,2.93,2.93,10,10,0,0,1,10,0Zm6.52,3.48A9.22,9.22,0,1,0,19.22,10a9.22,9.22,0,0,0-2.7-6.52Z"/><path class="cls-2" d="M15.1,9.75a5,5,0,0,0-10-.1,1.55,1.55,0,0,0,0,.22,5,5,0,0,0,.72,2.57l-.91,2.67,2.78-.89A5,5,0,0,0,15.1,9.87V9.75Zm-2.71,1.12c-.13-.06-.73-.36-.84-.4s-.2-.06-.28.07-.32.39-.39.47-.14.09-.26,0a3.1,3.1,0,0,1-1-.61,3.78,3.78,0,0,1-.69-.84A.2.2,0,0,1,9,9.34a1.33,1.33,0,0,0,.19-.21l0-.05a.71.71,0,0,0,.08-.15.18.18,0,0,0,0-.21c0-.06-.27-.67-.38-.91s-.2-.2-.27-.2H8.41a.41.41,0,0,0-.33.15,1.32,1.32,0,0,0-.44,1,1.41,1.41,0,0,0,.07.41,2.72,2.72,0,0,0,.44.85,5,5,0,0,0,2.09,1.84c1.26.48,1.26.32,1.48.3a1.23,1.23,0,0,0,.83-.58,1,1,0,0,0,.07-.58.77.77,0,0,0-.23-.14Zm-2.3,3.18a4.22,4.22,0,0,1-2.32-.69l-1.61.52.52-1.56a4.11,4.11,0,0,1-.81-2.45,2.83,2.83,0,0,1,0-.41,4.21,4.21,0,0,1,8.39.08c0,.11,0,.22,0,.33a4.2,4.2,0,0,1-4.21,4.18Z"/></svg>