<svg id="Capa_1" data-name="Capa 1" xmlns="http://www.w3.org/2000/svg" viewBox="0 0 20 20"><defs><style>.cls-1,.cls-2{fill:#fff;}.cls-2{fill-rule:evenodd;}</style></defs><title>icon</title><path class="cls-1" d="M10,0A10,10,0,1,1,2.93,2.93,10,10,0,0,1,10,0Zm6.52,3.48A9.22,9.22,0,1,0,19.22,10a9.21,9.21,0,0,0-2.7-6.52Z"/><path class="cls-2" d="M15.11,6.89a4.4,4.4,0,0,1-1.21.32,2.09,2.09,0,0,0,.93-1.14,4.41,4.41,0,0,1-1.34.5A2.1,2.1,0,0,0,9.87,8a1.84,1.84,0,0,0,.06.47A6,6,0,0,1,5.61,6.29a2.06,2.06,0,0,0-.29,1,2.08,2.08,0,0,0,.93,1.72,2.08,2.08,0,0,1-1-.26v0a1.85,1.85,0,0,0,.15.74A2.06,2.06,0,0,0,7,10.83a2,2,0,0,1-.56.08,2.58,2.58,0,0,1-.39,0,2.12,2.12,0,0,0,2,1.44,4.27,4.27,0,0,1-2.6.88c-.17,0-.33,0-.5,0a6,6,0,0,0,3.21.92,5.83,5.83,0,0,0,5.82-4.61,6,6,0,0,0,.13-1.25V8a4.23,4.23,0,0,0,1-1.06Z"/></svg>