<svg id="Capa_1" data-name="Capa 1" xmlns="http://www.w3.org/2000/svg" viewBox="0 0 77.3 99.02"><defs><style>.cls-1{fill:none;stroke:#fff;stroke-miterlimit:10;stroke-width:1.21px;}</style></defs><title>white_logo</title><path class="cls-1" d="M56.67,64.51a21.74,21.74,0,0,0-15.3-9.41,22.19,22.19,0,0,0-2.72-.17,23.31,23.31,0,0,0-2.66.16l-.21.06a12.14,12.14,0,0,0-1.18,2,13.53,13.53,0,0,0,.54,12.94c.16.25.32.5.47.75a3,3,0,0,1,.28.44,57,57,0,0,1,8.44,26.42,21.82,21.82,0,0,0,5.46-2.31,57,57,0,0,1,8.63-25.22A8.8,8.8,0,0,0,59,69,21.59,21.59,0,0,0,56.67,64.51Zm-9.85,1.26a2.7,2.7,0,1,1,2.7-2.7A2.7,2.7,0,0,1,46.82,65.77Z"/><circle class="cls-1" cx="46.82" cy="63.07" r="2.7" transform="translate(-22.93 99.18) rotate(-80.78)"/><circle class="cls-1" cx="46.82" cy="63.07" r="2.7" transform="translate(-22.93 99.18) rotate(-80.78)"/><circle class="cls-1" cx="46.82" cy="63.07" r="2.7" transform="translate(-22.93 99.18) rotate(-80.78)"/><path class="cls-1" d="M35.61,70.8a3,3,0,0,1,.28.44S35.72,71,35.61,70.8Zm23.45-1.64h0A1.17,1.17,0,0,1,59,69a8.8,8.8,0,0,1-.59,1.09,57,57,0,0,0-8.63,25.22,21.79,21.79,0,0,0,9.27-26.19Z"/><circle class="cls-1" cx="46.82" cy="63.07" r="2.7" transform="translate(-22.93 99.18) rotate(-80.78)"/><path class="cls-1" d="M35.89,71.24a3,3,0,0,0-.28-.44C35.72,71,35.89,71.24,35.89,71.24Z"/><path class="cls-1" d="M60.39,76.67a21.74,21.74,0,0,1-10.6,18.68,57,57,0,0,1,8.63-25.22A8.8,8.8,0,0,0,59,69a1.17,1.17,0,0,0,.05.11h0A21.73,21.73,0,0,1,60.39,76.67Z"/><path class="cls-1" d="M39.11,27.83a10.51,10.51,0,0,1-1.15.09l.24,0Z"/><circle class="cls-1" cx="46.82" cy="63.07" r="2.7" transform="translate(-22.93 99.18) rotate(-80.78)"/><path class="cls-1" d="M35.89,71.24a3,3,0,0,0-.28-.44C35.72,71,35.89,71.24,35.89,71.24Z"/><circle class="cls-1" cx="46.82" cy="63.07" r="2.7" transform="translate(-22.93 99.18) rotate(-80.78)"/><path class="cls-1" d="M35.89,71.24a3,3,0,0,0-.28-.44C35.72,71,35.89,71.24,35.89,71.24Z"/><path class="cls-1" d="M60.39,76.67a21.74,21.74,0,0,1-10.6,18.68,57,57,0,0,1,8.63-25.22A8.8,8.8,0,0,0,59,69a1.17,1.17,0,0,0,.05.11h0A21.73,21.73,0,0,1,60.39,76.67Z"/><path class="cls-1" d="M44.33,97.66a20.66,20.66,0,0,1-3,.58c-.5.07-1,.11-1.53.14s-.79,0-1.19,0a21.71,21.71,0,0,1-9.43-2.14h0A21.75,21.75,0,0,1,19.17,67c.39.21.79.41,1.19.61h0c.75.38,1.52.72,2.3,1,.34.14.69.28,1,.4h0c.35.14.7.26,1.05.38h0a35.64,35.64,0,0,0,11.09,1.79A57,57,0,0,1,44.33,97.66Z"/><path class="cls-1" d="M39.11,27.83a10.51,10.51,0,0,1-1.15.09l.24,0Z"/><path class="cls-1" d="M60.39,76.67a21.74,21.74,0,0,1-10.6,18.68,57,57,0,0,1,8.63-25.22c.21-.32.42-.65.64-1A21.73,21.73,0,0,1,60.39,76.67Z"/><path class="cls-1" d="M37.53,27.93l-.39.08h-.08c-.46.05-.92.12-1.38.2a22.3,22.3,0,0,1-2.47.14,21.69,21.69,0,0,1-18.16-9.81A21.69,21.69,0,0,0,8.51,32.6c0,.51-.06,1-.06,1.54A21.75,21.75,0,0,0,30.2,55.88a21.51,21.51,0,0,0,5.58-.73,12.14,12.14,0,0,0-1.18,2,13.53,13.53,0,0,0,.54,12.94c.16.25.32.5.47.75a3,3,0,0,1,.28.44l-1.21,0-1.13,0h-.06l-.47,0-.72-.07-1.1-.13-.28,0c-.49-.08-1-.15-1.46-.25l-.13,0-.09,0-.42-.08-.71-.15-.92-.23-.88-.23-.57-.17h0l-.46-.15-.46-.14h0l-.9-.32-.16-.06c-.35-.12-.7-.26-1-.4-.78-.31-1.55-.65-2.3-1h0c-.37-.19-.74-.37-1.1-.57l-.09,0c-.66-.36-1.31-.74-1.93-1.13-.26-.16-.53-.33-.78-.51s-.59-.39-.87-.59-.58-.41-.85-.62l-.61-.46-.4-.32c-.64-.52-1.27-1.06-1.87-1.62l-.49-.47c-.39-.38-.77-.76-1.14-1.16-.17-.17-.33-.35-.5-.53s-.27-.31-.4-.46-.42-.49-.63-.73l-.54-.67-.27-.35c-.17-.23-.34-.45-.5-.68l-.58-.8c-.34-.51-.67-1-1-1.54-.16-.25-.31-.5-.46-.76-.3-.51-.58-1-.85-1.56l-.33-.65c-.28-.57-.55-1.16-.8-1.75-.12-.3-.25-.59-.36-.89s-.23-.6-.34-.9-.16-.44-.22-.65-.14-.4-.2-.6-.16-.49-.22-.74-.18-.59-.26-.89-.19-.74-.28-1.12c0-.21-.09-.41-.13-.62s-.13-.61-.18-.91-.12-.63-.16-1a.36.36,0,0,1,0-.1c0-.2-.06-.39-.08-.59s-.06-.42-.08-.63,0-.25,0-.39c0-.35-.07-.7-.09-1,0,0,0-.07,0-.11,0-.35,0-.7-.06-1.05,0-.14,0-.29,0-.43,0-.38,0-.75,0-1.13A35.08,35.08,0,0,1,3.33,22.29c.13-.32.27-.64.41-.95s.25-.55.38-.82c.28-.57.57-1.13.88-1.68l.36-.63.38-.65c.13-.21.26-.43.4-.64a34.42,34.42,0,0,1,5.62-6.76A35.12,35.12,0,0,1,27.6,1.57h0a35.47,35.47,0,0,1,7.55-1A13.59,13.59,0,0,0,22.35,13.86c0,.1,0,.2,0,.31C22.34,21.67,30,27.92,37.53,27.93Z"/><path class="cls-1" d="M76.7,63.08A35.36,35.36,0,0,1,53.54,96.26h0a34.21,34.21,0,0,1-3.89,1.17,36.37,36.37,0,0,1-5.25.85q-.75.06-1.5.09c-.51,0-1-.08-1.5-.14a20.66,20.66,0,0,0,3-.58,21.77,21.77,0,0,0,14.73-28.5h0A1.17,1.17,0,0,1,59,69,21.77,21.77,0,0,0,41.37,55.1a22.19,22.19,0,0,0-2.72-.17,23.31,23.31,0,0,0-2.66.16l-.21.06a21.51,21.51,0,0,1-5.58.73A21.75,21.75,0,0,1,8.45,34.14c0-.52,0-1,.06-1.54a21.69,21.69,0,0,1,6.54-14,21.69,21.69,0,0,0,18.16,9.81,22.3,22.3,0,0,0,2.47-.14c.46,0,.93-.12,1.38-.2h.08l.8-.09h0a10.51,10.51,0,0,0,1.15-.09h.13c.7,0,1.42-.06,2.13-.06A35.18,35.18,0,0,1,69.21,41.34c.46.58.9,1.17,1.31,1.78a35.29,35.29,0,0,1,6.18,20Z"/><path class="cls-1" d="M39.11,27.83a10.51,10.51,0,0,1-1.15.09l.24,0Z"/><path class="cls-1" d="M35.61,70.8c.11.15.28.44.28.44A3,3,0,0,0,35.61,70.8Z"/><circle class="cls-1" cx="46.82" cy="63.07" r="2.7" transform="translate(-22.93 99.18) rotate(-80.78)"/><line class="cls-1" x1="46.82" y1="65.77" x2="46.82" y2="96.59"/></svg>