<?xml version="1.0" encoding="utf-8"?>
<!-- Generator: Adobe Illustrator 23.0.0, SVG Export Plug-In . SVG Version: 6.00 Build 0)  -->
<svg version="1.1" id="Capa_1" xmlns="http://www.w3.org/2000/svg" xmlns:xlink="http://www.w3.org/1999/xlink" x="0px" y="0px"
	 viewBox="0 0 153.28 196.98" style="enable-background:new 0 0 153.28 196.98;" xml:space="preserve">
<style type="text/css">
	.st0{fill:#FFFFFF;}
	.st1{fill:none;}
	.st2{fill:url(#SVGID_1_);}
	.st3{fill:#5A6E7F;}
	.st4{fill:url(#SVGID_2_);}
	.st5{fill:#00ADAC;}
	.st6{fill:none;stroke:#00ADAC;stroke-width:1.2165;stroke-miterlimit:10;}
	.st7{fill:url(#SVGID_3_);}
	.st8{opacity:0.17;fill:#231F20;enable-background:new    ;}
</style>
<g>
	<g>
		<path class="st0" d="M113.49,128.69c-6.9-10.21-18-17.35-30.83-18.95c-1.79-0.23-3.61-0.34-5.47-0.34c-1.81,0-3.6,0.11-5.35,0.33
			c-0.15,0.05-0.29,0.09-0.44,0.12c-0.91,1.23-1.69,2.54-2.37,3.93c-1.79,3.64-2.79,7.73-2.79,12.04c0,5.13,1.41,9.94,3.87,14.04
			c0.34,0.5,0.66,1,0.96,1.5c0.21,0.29,0.39,0.6,0.56,0.89c9.7,15.64,15.75,33.78,17,53.24c3.91-1.06,7.6-2.64,11-4.66
			c1.75-18.56,7.91-35.85,17.4-50.8c0.44-0.71,0.84-1.44,1.19-2.19C116.99,134.57,115.41,131.52,113.49,128.69z M93.65,131.22
			c-3,0-5.44-2.43-5.44-5.44c0-3,2.43-5.44,5.44-5.44c3,0,5.44,2.43,5.44,5.44C99.08,128.78,96.65,131.22,93.65,131.22z"/>
		<ellipse class="st1" cx="93.11" cy="125.78" rx="5.44" ry="5.44"/>
		<ellipse class="st1" cx="93.11" cy="125.78" rx="5.44" ry="5.44"/>
		<ellipse class="st1" cx="93.11" cy="125.78" rx="5.44" ry="5.44"/>
		<path class="st1" d="M117.75,138.05L117.75,138.05c-0.02-0.08-0.05-0.16-0.09-0.23c-0.35,0.75-0.75,1.48-1.19,2.19
			c-0.96,1.52-1.9,3.05-2.76,4.62c-7.93,13.86-13.07,29.5-14.63,46.18c4.57-2.74,8.61-6.29,11.91-10.45
			c5.92-7.47,9.45-16.91,9.45-27.18C120.44,147.85,119.49,142.77,117.75,138.05z"/>
		<ellipse class="st1" cx="93.11" cy="125.78" rx="5.44" ry="5.44"/>
		<path class="st1" d="M71.08,142.24c-0.17-0.29-0.35-0.6-0.56-0.89C70.74,141.65,71.08,142.24,71.08,142.24z"/>
		<path class="st1" d="M120.44,153.19c0,15.99-8.56,29.98-21.36,37.63c1.75-18.56,7.91-35.85,17.4-50.8
			c0.44-0.71,0.84-1.44,1.19-2.19c0.04,0.07,0.06,0.15,0.09,0.22v0.01C119.49,142.77,120.44,147.86,120.44,153.19z"/>
		<path class="st1" d="M77.57,54.79c-0.74,0.1-1.51,0.17-2.31,0.19c0.16-0.02,0.32-0.04,0.47-0.05
			C76.34,54.88,76.94,54.83,77.57,54.79z"/>
		<ellipse class="st1" cx="93.11" cy="125.78" rx="5.44" ry="5.44"/>
		<path class="st1" d="M71.08,142.24c-0.17-0.29-0.35-0.6-0.56-0.89C70.74,141.65,71.08,142.24,71.08,142.24z"/>
		<ellipse class="st1" cx="93.11" cy="125.78" rx="5.44" ry="5.44"/>
		<path class="st1" d="M71.08,142.24c-0.17-0.29-0.35-0.6-0.56-0.89C70.74,141.65,71.08,142.24,71.08,142.24z"/>
		
			<linearGradient id="SVGID_1_" gradientUnits="userSpaceOnUse" x1="79.1497" y1="288.6442" x2="39.7473" y2="356.8911" gradientTransform="matrix(1 0 0 -1 0 489.2701)">
			<stop  offset="0" style="stop-color:#5A6E7F"/>
			<stop  offset="1" style="stop-color:#00ADAC"/>
		</linearGradient>
		<path class="st2" d="M88.08,195.47c-1.93,0.52-3.92,0.91-5.96,1.17c-1.01,0.13-2.04,0.22-3.08,0.27c-0.79,0.05-1.59,0.07-2.4,0.07
			c-6.8,0-13.25-1.56-18.99-4.32c-0.01,0-0.02-0.01-0.04-0.01c-14.66-7.09-24.77-22.09-24.77-39.46c0-6.98,1.64-13.59,4.55-19.45
			c0.79,0.43,1.59,0.84,2.41,1.24c0.01,0,0.01,0,0.01,0c1.52,0.75,3.07,1.45,4.64,2.07c0.69,0.28,1.39,0.56,2.09,0.82h0.01
			c0.71,0.27,1.41,0.52,2.12,0.75c0.02,0.01,0.05,0.01,0.07,0.02c7.03,2.32,14.53,3.59,22.34,3.6
			C80.78,157.88,86.84,176.02,88.08,195.47z"/>
		<path class="st1" d="M77.57,54.79c-0.74,0.1-1.51,0.17-2.31,0.19c0.16-0.02,0.32-0.04,0.47-0.05
			C76.34,54.88,76.94,54.83,77.57,54.79z"/>
		<path class="st3" d="M120.44,153.19c0,15.99-8.56,29.98-21.36,37.63c1.75-18.56,7.91-35.85,17.4-50.8
			c0.41-0.66,0.84-1.31,1.28-1.96C119.49,142.77,120.44,147.86,120.44,153.19z"/>
		
			<linearGradient id="SVGID_2_" gradientUnits="userSpaceOnUse" x1="19.5932" y1="470.5557" x2="85.9556" y2="355.6128" gradientTransform="matrix(1 0 0 -1 0 489.2701)">
			<stop  offset="0" style="stop-color:#3EFA8F"/>
			<stop  offset="1" style="stop-color:#00ADAC"/>
		</linearGradient>
		<path class="st4" d="M74.38,55c-0.26,0.06-0.51,0.11-0.78,0.16c-0.06,0-0.11,0.01-0.16,0.02c-0.94,0.1-1.86,0.23-2.79,0.4
			c-1.63,0.18-3.28,0.28-4.96,0.28c-15.3,0-28.78-7.86-36.59-19.77c-7.49,7.27-12.4,17.23-13.17,28.31
			c-0.07,1.02-0.11,2.06-0.11,3.1c0,24.18,19.61,43.8,43.8,43.8c3.88,0,7.65-0.51,11.24-1.46c-0.91,1.23-1.69,2.54-2.37,3.93
			c-1.79,3.64-2.79,7.73-2.79,12.04c0,5.13,1.41,9.94,3.87,14.04c0.34,0.5,0.66,1,0.96,1.5c0.21,0.29,0.39,0.6,0.56,0.89
			c-0.81,0-1.62-0.01-2.43-0.05c-0.75-0.02-1.52-0.06-2.27-0.11c-0.04-0.01-0.07-0.01-0.11-0.01c-0.01,0-0.01,0-0.02,0
			c-0.32-0.02-0.63-0.05-0.95-0.07c-0.49-0.04-0.96-0.07-1.44-0.13c-0.74-0.07-1.48-0.16-2.21-0.26c-0.19-0.02-0.38-0.05-0.57-0.07
			c-0.99-0.15-1.96-0.3-2.93-0.49c-0.1-0.02-0.18-0.04-0.28-0.05c-0.06-0.01-0.12-0.02-0.18-0.04c-0.27-0.06-0.56-0.12-0.84-0.17
			c-0.47-0.1-0.95-0.19-1.42-0.3c-0.62-0.15-1.23-0.29-1.85-0.45c-0.6-0.15-1.19-0.3-1.79-0.47c-0.39-0.11-0.77-0.22-1.14-0.33
			c-0.01,0-0.02-0.01-0.04-0.01c-0.3-0.1-0.62-0.19-0.92-0.29c-0.32-0.1-0.62-0.19-0.92-0.29c-0.02-0.01-0.05-0.01-0.07-0.02
			c-0.6-0.19-1.2-0.41-1.8-0.63c-0.11-0.04-0.22-0.09-0.33-0.12c-0.71-0.26-1.4-0.54-2.09-0.82c-1.57-0.62-3.11-1.31-4.64-2.07
			c0,0,0,0-0.01,0c-0.75-0.38-1.5-0.75-2.23-1.14c-0.06-0.04-0.12-0.06-0.18-0.1c-1.33-0.72-2.63-1.47-3.89-2.26
			c-0.52-0.33-1.06-0.67-1.57-1.02c-0.6-0.39-1.18-0.79-1.75-1.19c-0.58-0.4-1.16-0.83-1.72-1.25c-0.41-0.3-0.83-0.62-1.23-0.94
			c-0.27-0.21-0.54-0.41-0.79-0.63c-1.3-1.05-2.55-2.14-3.77-3.27c-0.33-0.3-0.66-0.62-0.99-0.94c-0.79-0.77-1.56-1.55-2.3-2.34
			c-0.34-0.35-0.67-0.72-1-1.08c-0.28-0.3-0.55-0.61-0.82-0.91c-0.44-0.49-0.85-0.99-1.27-1.48c-0.36-0.45-0.73-0.9-1.08-1.35
			c-0.19-0.23-0.38-0.47-0.55-0.71c-0.35-0.45-0.69-0.9-1.02-1.36c-0.39-0.54-0.78-1.07-1.16-1.62c-0.69-1.01-1.36-2.04-2.01-3.09
			c-0.32-0.51-0.62-1.01-0.91-1.53c-0.61-1.03-1.18-2.08-1.73-3.15c-0.22-0.43-0.44-0.86-0.66-1.3c-0.57-1.16-1.11-2.34-1.61-3.53
			c-0.26-0.6-0.5-1.19-0.73-1.8c-0.24-0.6-0.46-1.2-0.68-1.81c-0.16-0.44-0.32-0.88-0.45-1.3c-0.15-0.4-0.28-0.8-0.4-1.2
			c-0.16-0.5-0.32-1-0.45-1.5C2.71,90.59,2.54,90,2.38,89.4C2.19,88.66,2,87.9,1.82,87.14c-0.1-0.41-0.18-0.83-0.27-1.25
			c-0.13-0.61-0.26-1.22-0.37-1.82c-0.12-0.64-0.23-1.28-0.33-1.92c-0.01-0.06-0.02-0.13-0.02-0.19c-0.06-0.4-0.12-0.79-0.17-1.19
			c-0.06-0.43-0.12-0.84-0.17-1.27c-0.02-0.26-0.06-0.51-0.09-0.78c-0.07-0.71-0.15-1.42-0.19-2.13c0-0.07-0.01-0.13-0.01-0.21
			c-0.05-0.71-0.1-1.41-0.12-2.13c-0.01-0.28-0.02-0.57-0.04-0.86C0.02,72.64,0,71.88,0,71.12c0-9.73,1.95-18.99,5.49-27.43
			c0.27-0.64,0.55-1.29,0.84-1.92c0.24-0.55,0.5-1.09,0.77-1.64c0.56-1.14,1.14-2.27,1.76-3.38c0.23-0.43,0.47-0.85,0.72-1.27
			c0.26-0.44,0.51-0.88,0.78-1.31c0.26-0.43,0.52-0.86,0.8-1.29c3.19-5.01,7-9.6,11.31-13.63c8.83-8.31,19.77-14.37,31.92-17.3h0.02
			c4.9-1.19,10-1.84,15.22-1.95C55.43,0.78,44.12,12.38,43.8,26.7c-0.01,0.21-0.01,0.41-0.01,0.62C43.79,42.39,59.27,54.98,74.38,55
			z"/>
		<path class="st1" d="M77.57,54.79c-0.74,0.1-1.51,0.17-2.31,0.19c0.16-0.02,0.32-0.04,0.47-0.05
			C76.34,54.88,76.94,54.83,77.57,54.79z"/>
		<path class="st1" d="M70.52,141.35c0.22,0.3,0.56,0.89,0.56,0.89C70.91,141.95,70.73,141.64,70.52,141.35z"/>
		<ellipse class="st5" cx="93.11" cy="125.78" rx="5.44" ry="5.44"/>
		<line class="st6" x1="93.1" y1="135" x2="93.1" y2="194.52"/>
		
			<linearGradient id="SVGID_3_" gradientUnits="userSpaceOnUse" x1="42.2299" y1="315.6749" x2="108.4744" y2="430.4137" gradientTransform="matrix(1 0 0 -1 0 489.2701)">
			<stop  offset="0" style="stop-color:#10A7C1"/>
			<stop  offset="1" style="stop-color:#32FAF9"/>
		</linearGradient>
		<path class="st7" d="M153.28,125.81c0,6.02-0.74,11.86-2.15,17.43c-2.29,9.06-6.29,17.43-11.68,24.73
			c-0.02,0.01-0.02,0.04-0.04,0.05c-0.35,0.47-0.71,0.94-1.06,1.4c-8.11,10.45-19.08,18.58-31.73,23.21
			c-0.02,0.01-0.04,0.01-0.05,0.02c-2.55,0.94-5.16,1.73-7.83,2.36c-0.34,0.09-0.68,0.16-1.02,0.24c-3.13,0.69-6.3,1.18-9.56,1.46
			c-1.01,0.09-2.02,0.15-3.03,0.18c-1.02-0.05-2.03-0.15-3.02-0.27c2.04-0.26,4.03-0.64,5.96-1.17c1.72-0.46,3.39-1.03,5.02-1.7
			c2.08-0.83,4.08-1.82,5.97-2.96c4.57-2.74,8.61-6.29,11.91-10.45c5.92-7.47,9.45-16.91,9.45-27.18c0-5.33-0.95-10.41-2.69-15.13
			v-0.01c-0.02-0.07-0.05-0.15-0.09-0.22c-1.22-3.25-2.8-6.3-4.72-9.14c-6.9-10.21-18-17.35-30.83-18.95
			c-1.79-0.23-3.61-0.34-5.47-0.34c-1.81,0-3.6,0.11-5.35,0.33c-0.15,0.05-0.29,0.09-0.44,0.12c-3.59,0.95-7.36,1.46-11.24,1.46
			c-24.18,0-43.8-19.61-43.8-43.8c0-1.05,0.04-2.08,0.11-3.1c0.45-6.4,2.27-12.42,5.17-17.76c2.13-3.92,4.84-7.47,8-10.55
			c7.81,11.91,21.29,19.77,36.59,19.77c1.68,0,3.33-0.1,4.96-0.28c0.94-0.11,1.87-0.24,2.79-0.4c0.05-0.01,0.1-0.02,0.16-0.02
			c0.54-0.06,1.07-0.12,1.62-0.17h0.04c0.8-0.02,1.57-0.1,2.31-0.19c0.04-0.01,0.09-0.01,0.12-0.01c0.05,0,0.09,0,0.13-0.01
			c1.42-0.07,2.86-0.12,4.29-0.12c7,0,13.76,1.01,20.16,2.9c14.42,4.25,26.92,12.93,35.94,24.48c0.92,1.17,1.8,2.36,2.63,3.59
			c4.14,6.02,7.37,12.71,9.49,19.88C152.25,111.92,153.28,118.74,153.28,125.81z"/>
		<path class="st8" d="M99.81,123.25c-1.87-1.37-3.87-2.6-5.96-3.66c-4.4-2.24-9.23-3.75-14.33-4.39c-1.79-0.23-3.61-0.34-5.47-0.34
			c-1.68,0-3.33,0.1-4.96,0.28c-0.13,0.01-0.26,0.04-0.39,0.05c-0.15,0.05-0.29,0.09-0.44,0.12c-3.59,0.95-7.36,1.46-11.24,1.46
			c-24.18,0-43.8-19.61-43.8-43.8c0-1.05,0.04-2.08,0.11-3.1c0.46-6.68,2.43-12.96,5.57-18.47c-1.44,3.83-2.34,7.93-2.64,12.19
			c-0.07,1.02-0.11,2.06-0.11,3.1c0,24.18,19.61,43.8,43.8,43.8c3.88,0,7.65-0.51,11.24-1.46c0.15-0.04,0.29-0.07,0.44-0.12
			c1.75-0.22,3.54-0.33,5.35-0.33c1.86,0,3.69,0.11,5.47,0.34c12.82,1.61,23.93,8.75,30.83,18.95c1.92,2.83,3.5,5.89,4.72,9.14
			c0.04,0.07,0.06,0.15,0.09,0.22v0.01c1.74,4.72,2.69,9.81,2.69,15.13c0,7.86-2.07,15.22-5.69,21.59
			c1.79-4.77,2.76-9.93,2.76-15.32c0-5.22-0.91-10.19-2.58-14.83c-0.04-0.1-0.07-0.21-0.11-0.3v-0.01
			c-0.02-0.07-0.05-0.15-0.09-0.22c-1.22-3.25-2.8-6.3-4.72-9.14C107.49,129.94,103.92,126.24,99.81,123.25z"/>
		<path class="st8" d="M76.41,152.4c-0.58,0-1.16-0.01-1.74-0.04c-0.75-0.02-1.52-0.06-2.27-0.11c-0.04-0.01-0.07-0.01-0.11-0.01
			c-0.01,0-0.01,0-0.02,0c-0.32-0.02-0.63-0.05-0.95-0.07c-0.49-0.04-0.96-0.07-1.44-0.13c-0.74-0.07-1.48-0.16-2.21-0.26
			c-0.19-0.02-0.38-0.05-0.57-0.07c-0.99-0.15-1.96-0.3-2.93-0.49c-0.1-0.02-0.18-0.04-0.28-0.05c-0.06-0.01-0.12-0.02-0.18-0.04
			c-0.27-0.06-0.56-0.12-0.84-0.17c-0.47-0.1-0.95-0.19-1.42-0.3c-0.62-0.15-1.23-0.29-1.85-0.45c-0.6-0.15-1.19-0.3-1.79-0.47
			c-0.39-0.11-0.77-0.22-1.14-0.33c-0.01,0-0.02-0.01-0.04-0.01c-0.3-0.1-0.62-0.19-0.92-0.29c-0.32-0.1-0.62-0.19-0.92-0.29
			c-0.02-0.01-0.05-0.01-0.07-0.02c-0.6-0.19-1.2-0.41-1.8-0.63c-0.11-0.04-0.22-0.09-0.33-0.12c-0.71-0.26-1.4-0.54-2.09-0.82
			c-1.57-0.62-3.11-1.31-4.64-2.07c0,0,0,0-0.01,0c-0.75-0.38-1.5-0.75-2.23-1.14c-0.06-0.04-0.12-0.06-0.18-0.1
			c-1.33-0.72-2.63-1.47-3.89-2.26c-0.52-0.33-1.06-0.67-1.57-1.02c-0.6-0.39-1.18-0.79-1.75-1.19c-0.29-0.19-0.57-0.4-0.85-0.61
			c0.58-1.59,1.24-3.14,1.98-4.65c0.79,0.43,1.59,0.84,2.41,1.24c0.01,0,0.01,0,0.01,0c1.52,0.75,3.07,1.45,4.64,2.07
			c0.69,0.28,1.39,0.56,2.09,0.82h0.01c0.71,0.27,1.41,0.52,2.12,0.75c0.02,0.01,0.05,0.01,0.07,0.02
			c7.03,2.32,14.53,3.59,22.34,3.6C72.97,145.81,74.77,149.06,76.41,152.4z"/>
	</g>
</g>
</svg>
